<?xml version="1.0" encoding="UTF-8"?>
<svg width="42px" height="42px" viewBox="0 0 42 42" version="1.1" xmlns="http://www.w3.org/2000/svg" xmlns:xlink="http://www.w3.org/1999/xlink">
    <!-- Generator: Sketch 58 (84663) - https://sketch.com -->
    <title>我发起的-蓝@2x</title>
    <desc>Created with Sketch.</desc>
    <defs>
        <linearGradient x1="124.518816%" y1="-12.1859518%" x2="40.8020977%" y2="41.5248905%" id="linearGradient-1">
            <stop stop-color="#40FCFD" offset="0%"></stop>
            <stop stop-color="#21B4FC" offset="100%"></stop>
        </linearGradient>
    </defs>
    <g id="配色方案" stroke="none" stroke-width="1" fill="none" fill-rule="evenodd">
        <g id="工作台首页-蓝" transform="translate(-697.000000, -201.000000)">
            <g id="我发起的" transform="translate(697.000000, 201.000000)">
                <rect id="矩形" x="0" y="0" width="42" height="42"></rect>
                <g id="编组-22" transform="translate(1.000000, 3.000000)">
                    <g id="编组" transform="translate(5.000000, 0.000000)" fill="url(#linearGradient-1)">
                        <path d="M33.3558889,0.226679271 C32.7325556,-0.075559757 32.1281111,-0.075559757 31.807,0.226679271 C30.9834444,0.642257929 30.1561111,1.04272461 29.3325556,1.46208124 C27.2812222,2.48213791 25.2525556,3.50030557 23.2012222,4.51847327 L15.3566667,8.41357853 C13.1088889,9.5337519 10.8573333,10.710595 8.5868889,11.7873215 C6.85666667,12.6052559 5.168,13.5251958 3.45855557,14.3450192 C2.71244447,14.703928 1.92855557,14.9438302 1.1881111,15.321629 C0.583666667,15.623868 0,16.0828935 0,16.8233791 C0,17.161509 0.0623333333,17.6394244 0.34,17.8812157 C0.442,17.9605534 0.564777763,18.0191122 0.663,18.1003389 C2.193,18.9390522 3.64177776,19.9383299 5.12833333,20.8582699 L8.0221111,22.6528141 L8.0428889,22.6528141 C8.66622224,22.9550531 9.27066667,22.9550531 9.894,22.354353 L9.9128889,22.3316851 C9.93177781,22.3127951 9.95066667,22.3127951 9.95066667,22.2939052 C9.97333333,22.2731263 10.0148889,22.2542364 10.0337778,22.2145675 C10.0753333,22.1730096 10.1131111,22.1541197 10.1546667,22.1144508 C10.1943333,22.074782 10.2547778,22.0351131 10.2944444,21.9935552 C10.3548889,21.9349964 10.4153333,21.8953275 10.4568889,21.8348797 C10.5182208,21.7692876 10.5852214,21.7092365 10.6571111,21.6554253 C10.7383333,21.5949775 10.7968889,21.5156398 10.8781111,21.455192 C10.9593333,21.3739652 11.0405555,21.3154064 11.118,21.2360687 C11.1992222,21.1548419 11.2993333,21.0773932 11.3805556,20.9961665 C11.4825556,20.9168287 11.5618889,20.8167121 11.6638889,20.7354853 C11.764,20.6372576 11.8641111,20.5560309 11.9623333,20.4578032 C12.0662222,20.3576866 12.1852222,20.2556809 12.2834444,20.1555642 C12.4062222,20.0573365 12.5063333,19.9591089 12.6272222,19.8571032 C12.7481111,19.7569865 12.8671111,19.6360909 12.988,19.5397522 C13.1107778,19.4169676 13.2316667,19.3168509 13.3714444,19.1978443 C13.4904444,19.0788377 13.634,18.9579421 13.7548889,18.8578254 C13.8927778,18.7388188 14.0136667,18.6179232 14.1553333,18.4989166 C14.2951111,18.37991 14.4367778,18.2590144 14.5595556,18.1192289 C14.6974445,18.0002223 14.8372222,17.8585477 14.9807778,17.7376521 C15.1205555,17.6205345 15.2622222,17.4807489 15.402,17.3598534 C15.5417778,17.2200678 15.7042222,17.0991722 15.844,16.9612756 C15.9856667,16.8214901 16.1462222,16.7005945 16.2878889,16.560809 C16.4276667,16.4210234 16.5863333,16.3001278 16.7298889,16.1622312 C16.8885556,16.0224457 17.0302222,15.8826601 17.1907778,15.7617646 C17.3532222,15.621979 17.493,15.4821935 17.6535556,15.3612978 C17.8141111,15.2234013 17.9557778,15.0836158 18.1163333,14.9438302 C18.2768889,14.8040447 18.4185556,14.6642591 18.5791111,14.5244736 C18.7377778,14.3827991 18.8813333,14.2430135 19.04,14.1240069 C19.1826543,13.9859538 19.330734,13.85362 19.4838889,13.7273182 C19.6236667,13.5837547 19.7861111,13.4666371 19.9258889,13.3249625 C20.0656667,13.185177 20.2281111,13.0661704 20.3678889,12.9282738 C20.5095556,12.7847103 20.6493333,12.6675927 20.8117778,12.5259181 C20.9515555,12.4069115 21.0913333,12.267126 21.233,12.1481193 C21.3727778,12.0253348 21.5125556,11.8874382 21.6561111,11.7665426 C21.7949397,11.6523026 21.9291575,11.5325711 22.0584444,11.4076338 C22.1982222,11.2886272 22.3172222,11.1677315 22.4588889,11.0487249 C22.5797778,10.9297183 22.7195556,10.8088227 22.8404444,10.708706 C22.9632222,10.5878104 23.0822222,10.4895828 23.2031111,10.3705762 C23.324,10.2685705 23.443,10.1495639 23.5638889,10.0494472 C23.6866667,9.94933056 23.7867778,9.85110287 23.9038889,9.7490972 C24.0077778,9.6508695 24.1286667,9.55075285 24.2287778,9.45063614 C24.3288889,9.35051949 24.429,9.26929274 24.531,9.16917608 C24.6311111,9.08983834 24.7123333,9.0123896 24.8124444,8.91038394 C24.8917778,8.8310462 24.9918889,8.75170846 25.0731111,8.67048171 C25.1543333,8.59114396 25.2336667,8.53069618 25.313,8.45135844 C25.3942222,8.39279961 25.4546667,8.33046282 25.5358889,8.25301408 L25.7153333,8.07355964 C25.7776667,8.0301128 25.8154444,7.97155397 25.8777778,7.9318851 C25.9174444,7.89410524 25.959,7.85254736 26.0175556,7.81287849 C26.0591111,7.77132061 26.0987778,7.7524307 26.1176667,7.71276183 L26.2385556,7.59375522 L26.2612222,7.59375522 C26.3613333,7.63153508 26.4614445,7.69198291 26.5615556,7.73165179 C26.6201111,7.75431971 26.6616667,7.79209957 26.7221111,7.81287849 C26.7428889,7.83365741 26.7636667,7.83365741 26.8014444,7.85254736 C26.8222222,7.85254736 26.8826667,7.87332628 26.8826667,7.89410524 L26.8826667,7.91299519 C26.86,7.93188515 26.8411111,7.93188515 26.8411111,7.95077505 L26.7825556,8.01122284 L26.52,8.27190399 C26.39577,8.38826803 26.2819996,8.51531876 26.18,8.65159175 C26.0987778,8.73092949 26.0175556,8.83104615 25.9382222,8.91038394 C25.892307,8.95304243 25.8511415,9.00054368 25.8154444,9.05205847 L25.7568889,9.11061725 C25.7342222,9.13139617 25.7153333,9.16917608 25.6964444,9.16917608 C25.3356667,9.55075285 24.973,9.94933052 24.6122222,10.3290183 L21.7751111,13.3268515 C20.689,14.4640258 19.6255555,15.603089 18.5375556,16.7402634 C17.5118889,17.8188789 16.4881111,18.8974943 15.4832222,19.9779988 C14.6974445,20.7959332 13.9343333,21.6157565 13.1504444,22.4336908 C12.8104444,22.7925996 12.4647778,23.1515084 12.1247778,23.5330852 L12.104,23.5538641 C11.8036667,23.8523251 11.8036667,24.1715651 11.8036667,24.4719151 L11.8036667,31.2250681 C11.8036667,31.8427691 12.104,32.4415801 12.7273333,32.7608201 C13.3506667,33.0630591 13.9551111,32.7608201 14.2762222,32.46047 L16.6675556,30.0841158 C17.0717778,29.6855381 17.4533333,29.2850714 17.8348889,28.8864937 C17.8764445,28.8449358 17.9142222,28.805267 17.9557778,28.805267 C18.0143333,28.7844881 18.0955555,28.8260459 18.1371111,28.8676038 C19.5046667,29.7648759 20.8514444,30.7037058 22.2171111,31.6028668 C23.2427778,32.2829046 24.2684444,32.9629424 25.2733333,33.6410912 C25.6133333,33.8791044 25.8966667,34 26.299,34 L26.9223333,34 C27.3057778,33.8205456 27.6665556,33.5806434 27.7855556,33.1612867 C27.9083333,32.77971 27.9291111,32.3433524 28.0084444,31.9617757 C28.0273333,31.8219901 28.0688889,31.6614256 28.0877778,31.5216401 C28.169,31.1419524 28.2294444,30.7830435 28.3106667,30.4033558 C28.5127778,29.3832991 28.713,28.3651314 28.9151111,27.3677427 L29.6971111,23.5123063 C29.9785555,22.074782 30.2807778,20.6372576 30.5603333,19.1789544 L31.467,14.724707 C31.7503333,13.3079616 32.0298889,11.8874382 32.3321111,10.4688038 C32.572,9.23151287 32.8345555,7.99422194 33.0763333,6.75315295 C33.2557778,5.81432303 33.4578889,4.87549307 33.6373333,3.91588423 C33.7374444,3.37752098 33.8602222,2.83915774 33.9584444,2.31779544 C33.9817577,2.241049 33.9957107,2.16176609 34,2.08167123 C33.9603333,1.14284131 33.9603333,0.523251318 33.3577778,0.222901298 L33.3558889,0.224790262 L33.3558889,0.226679271 Z" id="路径"></path>
                    </g>
                    <g id="message" transform="translate(0.000000, 19.000000)" fill-rule="nonzero">
                        <rect id="矩形" fill="#000000" opacity="0" x="0" y="0" width="17" height="17"></rect>
                        <path d="M14.8987679,5.81156953 C14.8987189,5.81145246 14.8986698,5.81133539 14.8986207,5.81121832 L14.8989156,5.81192051 C14.8988664,5.81180352 14.8988172,5.81168652 14.8987679,5.81156953 Z M5.03116011,15.640625 L2.62304687,15.640625 C1.92522481,15.640625 1.359375,15.0747752 1.359375,14.3769531 L1.359375,11.9705001 C0.842141719,10.9053667 0.567642507,9.72490155 0.562411712,8.53729169 C0.557209319,7.46615214 0.762186879,6.42219068 1.1701147,5.43961674 C1.56255251,4.49387697 2.13084294,3.64211095 2.85713271,2.9087181 C3.58005668,2.17872397 4.42700354,1.60353192 5.37326672,1.19875144 C6.34919638,0.781506149 7.38948776,0.567827087 8.46679687,0.5625 L8.5,0.5625 C9.56594896,0.5625 10.6012959,0.770015664 11.5749476,1.17894999 C12.5257127,1.5765748 13.3810158,2.15183873 14.1150158,2.88583922 C14.8463303,3.61892447 15.4204597,4.47320399 15.8206156,5.42401699 L15.8209105,5.42471918 C16.2346996,6.41212995 16.4427867,7.46003142 16.4375863,8.53572438 C16.4321662,9.61059788 16.2184668,10.6508669 15.8015217,11.6260933 C15.3994069,12.5702658 14.8232235,13.4180147 14.0917123,14.1424406 C13.3630302,14.8658167 12.5105658,15.4338286 11.5603981,15.8298792 C10.5897397,16.2326935 9.55990666,16.4375 8.50166016,16.4375 L8.46463551,16.4374953 C7.27683724,16.4323608 6.09634574,16.1578835 5.03116011,15.640625 Z" id="形状" stroke="#F1F1F1" fill="#0076F6" stroke-linejoin="round"></path>
                        <path d="M7.703125,8.5 C7.703125,8.94010191 8.05989809,9.296875 8.5,9.296875 C8.94010191,9.296875 9.296875,8.94010191 9.296875,8.5 C9.296875,8.05989809 8.94010191,7.703125 8.5,7.703125 C8.05989809,7.703125 7.703125,8.05989809 7.703125,8.5 Z" id="路径" fill="#FFFFFF"></path>
                        <path d="M11.0234375,8.5 C11.0234375,8.94010191 11.3802106,9.296875 11.8203125,9.296875 C12.2604144,9.296875 12.6171875,8.94010191 12.6171875,8.5 C12.6171875,8.05989809 12.2604144,7.703125 11.8203125,7.703125 C11.3802106,7.703125 11.0234375,8.05989809 11.0234375,8.5 Z" id="路径" fill="#FFFFFF"></path>
                        <path d="M4.3828125,8.5 C4.3828125,8.94010191 4.73958559,9.296875 5.1796875,9.296875 C5.61978941,9.296875 5.9765625,8.94010191 5.9765625,8.5 C5.9765625,8.05989809 5.61978941,7.703125 5.1796875,7.703125 C4.73958559,7.703125 4.3828125,8.05989809 4.3828125,8.5 Z" id="路径" fill="#FFFFFF"></path>
                    </g>
                </g>
            </g>
        </g>
    </g>
</svg>