<?xml version="1.0" encoding="UTF-8"?>
<svg width="46px" height="36px" viewBox="0 0 46 36" version="1.1" xmlns="http://www.w3.org/2000/svg" xmlns:xlink="http://www.w3.org/1999/xlink">
    <title>编组 5</title>
    <g id="画布栅格及拖拽说明" stroke="none" stroke-width="1" fill="none" fill-rule="evenodd">
        <g id="工作台-纵向导航" transform="translate(-800.000000, -780.000000)">
            <g id="编组-5" transform="translate(800.000000, 780.000000)">
                <rect id="矩形" x="0" y="0" width="46" height="36"></rect>
                <g id="发起备份" transform="translate(8.000000, 6.000000)" fill-rule="nonzero">
                    <rect id="矩形" fill="#000000" opacity="0" x="4" y="0" width="28" height="24"></rect>
                    <path d="M29.089782,0 L5.65426866,10.433188 C5.65426866,10.433188 4.2654975,11.5550362 5.65426866,12.5646995 C7.04303982,13.5743629 9.90738034,15.4067149 9.90738034,15.4067149 C9.90738034,15.4067149 10.7753623,16.1546137 11.6433443,15.4067149 L20.9741505,7.85293721 C20.9741505,7.85293721 21.625137,7.70335745 21.2779442,8.15209672 L11.2961515,16.9399074 L11.2093533,21.9882242 C11.2093533,21.9882242 11.2093533,22.7735179 12.0773353,22.736123 L12.6415236,22.736123 C12.6415236,22.736123 13.29251,22.8109129 13.8566983,22.0630141 L15.6794605,19.7071329 C15.6794605,19.7071329 16.0266533,19.1462088 16.7644379,19.7819228 L21.3213433,22.698728 C21.3213433,22.698728 22.1459262,23.1100724 22.6233163,23.1100724 L23.0139082,23.1100724 C23.0139082,23.1100724 23.7516929,23.1474673 23.8818901,22.7735179 L29.523773,1.94453683 L29.9143649,0.635713965 C29.9143649,0.635713965 30.0879613,0 29.089782,0 Z" id="路径" fill="#2970FF"></path>
                    <g id="message" transform="translate(0.000000, 14.571429)">
                        <rect id="矩形" fill="#000000" opacity="0" x="0" y="0" width="10" height="8.57142857"></rect>
                        <path d="M9.03515625,2.83258929 C8.81445312,2.38309152 8.49804687,1.9796317 8.09472656,1.63309152 C7.69140625,1.28738839 7.22070312,1.01534598 6.6953125,0.827008929 C6.15820312,0.633649554 5.58789062,0.535714286 5,0.535714286 L4.98046875,0.535714286 C4.38867187,0.538225446 3.81542969,0.638671875 3.27636719,0.836216518 C2.75585937,1.02706473 2.2890625,1.29827009 1.88964844,1.64397321 C1.49023437,1.98967634 1.17675781,2.39146205 0.959960937,2.83928571 C0.735351562,3.30301339 0.622070312,3.79603795 0.624944597,4.30329241 C0.627929687,4.88420759 0.790039062,5.4609375 1.09375,5.9765625 L1.09375,7.24888393 C1.09375,7.46149554 1.29492187,7.63392857 1.54296875,7.63392857 L3.02832031,7.63392857 C3.62988281,7.89425223 4.30273437,8.03320313 4.98046875,8.03571429 L5.00097656,8.03571429 C5.5859375,8.03571429 6.15332031,7.93861607 6.6875,7.74860491 C7.20996094,7.56194196 7.6796875,7.29408482 8.08203125,6.95172991 C8.48535156,6.609375 8.80273437,6.20926339 9.02441406,5.76311384 C9.25488281,5.30106027 9.37207031,4.80970982 9.37505449,4.30245536 C9.37792969,3.79268973 9.26269531,3.29799107 9.03515625,2.83258929 L9.03515625,2.83258929 Z" id="形状" fill="#D9DBEB"></path>
                        <path d="M4.53125,4.28571429 C4.53125,4.50761441 4.74111652,4.6875 5,4.6875 C5.25888348,4.6875 5.46875,4.50761441 5.46875,4.28571429 C5.46875,4.06381416 5.25888348,3.88392857 5,3.88392857 C4.74111652,3.88392857 4.53125,4.06381416 4.53125,4.28571429 Z" id="路径" fill="#A2A6C4"></path>
                        <path d="M6.484375,4.28571429 C6.484375,4.50761441 6.69424152,4.6875 6.953125,4.6875 C7.21200848,4.6875 7.421875,4.50761441 7.421875,4.28571429 C7.421875,4.06381416 7.21200848,3.88392857 6.953125,3.88392857 C6.69424152,3.88392857 6.484375,4.06381416 6.484375,4.28571429 Z" id="路径" fill="#A2A6C4"></path>
                        <path d="M2.578125,4.28571429 C2.578125,4.50761441 2.78799152,4.6875 3.046875,4.6875 C3.30575848,4.6875 3.515625,4.50761441 3.515625,4.28571429 C3.515625,4.06381416 3.30575848,3.88392857 3.046875,3.88392857 C2.78799152,3.88392857 2.578125,4.06381416 2.578125,4.28571429 Z" id="路径" fill="#A2A6C4"></path>
                    </g>
                </g>
            </g>
        </g>
    </g>
</svg>