<?xml version="1.0" encoding="UTF-8"?>
<svg width="204px" height="204px" viewBox="0 0 204 204" version="1.1" xmlns="http://www.w3.org/2000/svg" xmlns:xlink="http://www.w3.org/1999/xlink">
    <title>搜索结果空</title>
    <defs>
        <linearGradient x1="92.5766725%" y1="47.0568076%" x2="17.0926348%" y2="54.0253457%" id="linearGradient-1">
            <stop stop-color="#CDD8EA" stop-opacity="0.6" offset="0%"></stop>
            <stop stop-color="#E7EBF5" stop-opacity="0.2" offset="100%"></stop>
        </linearGradient>
        <linearGradient x1="100%" y1="66.9796039%" x2="0%" y2="29.2366979%" id="linearGradient-2">
            <stop stop-color="#BEC5D7" stop-opacity="0.4" offset="0%"></stop>
            <stop stop-color="#EEF2F4" stop-opacity="0" offset="100%"></stop>
        </linearGradient>
        <linearGradient x1="90.6955496%" y1="19.7036596%" x2="40.5557036%" y2="63.6854556%" id="linearGradient-3">
            <stop stop-color="#BEC5D7" stop-opacity="0.4" offset="0%"></stop>
            <stop stop-color="#EEF2F4" stop-opacity="0" offset="100%"></stop>
        </linearGradient>
        <linearGradient x1="50%" y1="18.9087302%" x2="21.6436564%" y2="93.9150296%" id="linearGradient-4">
            <stop stop-color="#E6EBF6" offset="0%"></stop>
            <stop stop-color="#CDD4E4" offset="100%"></stop>
        </linearGradient>
        <linearGradient x1="50%" y1="161.806776%" x2="50%" y2="19.8463467%" id="linearGradient-5">
            <stop stop-color="#B1BBD4" offset="0%"></stop>
            <stop stop-color="#CBCEDF" offset="100%"></stop>
        </linearGradient>
        <linearGradient x1="50%" y1="161.806776%" x2="50%" y2="19.8463467%" id="linearGradient-6">
            <stop stop-color="#B1BBD4" offset="0%"></stop>
            <stop stop-color="#CBCEDF" offset="100%"></stop>
        </linearGradient>
        <linearGradient x1="50%" y1="18.9087302%" x2="35.5369303%" y2="93.9150296%" id="linearGradient-7">
            <stop stop-color="#E6EBF6" offset="0%"></stop>
            <stop stop-color="#CDD4E4" offset="100%"></stop>
        </linearGradient>
        <linearGradient x1="32.4041897%" y1="66.082445%" x2="95.714126%" y2="36.3741019%" id="linearGradient-8">
            <stop stop-color="#F8FCFE" stop-opacity="0.316502284" offset="0%"></stop>
            <stop stop-color="#CBD2D8" offset="100%"></stop>
        </linearGradient>
        <radialGradient cx="50%" cy="50%" fx="50%" fy="50%" r="87.386042%" gradientTransform="translate(0.500000,0.500000),scale(1.000000,0.551024),rotate(82.666234),translate(-0.500000,-0.500000)" id="radialGradient-9">
            <stop stop-color="#E6EAED" offset="0%"></stop>
            <stop stop-color="#E2EAF0" offset="100%"></stop>
        </radialGradient>
        <radialGradient cx="50%" cy="50.1078999%" fx="50%" fy="50.1078999%" r="90.0486286%" gradientTransform="translate(0.500000,0.501079),scale(1.000000,0.551024),rotate(90.000000),translate(-0.500000,-0.501079)" id="radialGradient-10">
            <stop stop-color="#E2E9EE" offset="0%"></stop>
            <stop stop-color="#A3ADBC" offset="100%"></stop>
        </radialGradient>
    </defs>
    <g id="一级页面" stroke="none" stroke-width="1" fill="none" fill-rule="evenodd">
        <g id="应用管理-无搜索结果" transform="translate(-618.000000, -271.000000)">
            <g id="搜索结果空" transform="translate(618.000000, 271.000000)">
                <g id="编组-2" transform="translate(25.101562, 25.300781)">
                    <path d="M71.8183594,101.800781 C112.80285,101.800781 134.074219,112.905344 134.074219,126.603516 C134.074219,140.301688 112.80285,151.40625 71.8183594,151.40625 C56.4009883,151.40625 43.4912744,149.834863 33.3842625,147.145145 C30.3321412,149.330989 24.5101045,150.808594 17.8300781,150.808594 C7.98279789,150.808594 0,147.597636 0,143.636719 C0,140.439325 5.20182592,137.730627 12.3871306,136.805155 C9.21020092,133.694493 7.5703125,130.240419 7.5703125,126.603516 C7.5703125,112.905344 30.833869,101.800781 71.8183594,101.800781 Z" id="形状结合" fill="url(#linearGradient-1)" fill-rule="nonzero"></path>
                    <line x1="110.922432" y1="84.5785857" x2="147.356998" y2="105.810657" id="路径-3" stroke="url(#linearGradient-2)" stroke-width="0.796875"></line>
                    <circle id="椭圆形" stroke="url(#linearGradient-3)" stroke-width="0.796875" cx="125.308594" cy="34.265625" r="34.265625"></circle>
                    <g id="search" transform="translate(76.898438, 66.339844) scale(-1, 1) translate(-76.898438, -66.339844) translate(37.253906, 20.519531)">
                        <g id="编组-4" fill="url(#linearGradient-4)">
                            <path d="M37.9446848,10.0229917 C46.7742732,0.572015091 56.2759625,-2.16556966 62.9181323,1.6844106 L62.9181323,1.6844106 L62.9177739,1.68333668 L62.973857,1.71555409 C62.9763655,1.71716496 62.9790532,1.71859685 62.9817408,1.72020772 L62.9817408,1.72020772 L70.7070484,6.16459916 C70.7482596,6.18840424 70.7898291,6.21149338 70.8308611,6.23583542 L70.8308611,6.23583542 L70.8518251,6.24800645 C73.8451914,8.02748128 76.2488792,11.1590133 77.7317655,15.6327584 C82.5063514,30.0373405 75.9337031,52.8925488 63.0514415,66.6817784 C54.1516149,76.20775 44.5696534,78.9129384 37.9206748,74.9269291 L37.9206748,74.9269291 L37.9210332,74.928361 L31.9205038,71.559315 L30.7599607,72.8012961 L14.2192199,90.5060147 C12.7660773,92.0613996 10.4206227,91.9495336 9.06764122,90.5845894 L9.06764122,90.5845894 L2.19845151,86.7702273 C1.39160796,86.3719843 0.723449039,85.6662441 0.402360066,84.697574 C-0.509661626,81.9458494 0.154376172,78.9159812 2.13430539,76.7967916 L2.13430539,76.7967916 L22.0228287,55.5089603 C20.1719085,41.2744145 26.6191314,22.1455075 37.9446848,10.0229917 Z M63.2411922,14.4536013 C54.4383015,12.9835926 46.6782332,22.1904328 42.7029654,28.9811465 C37.3985469,38.0421135 32.0731644,54.555683 40.1229653,63.6705247 C44.4943334,64.4004889 49.8453973,62.1455048 54.9206466,56.85842 L55.1965002,56.5679221 L55.1965002,56.5679221 L55.101,56.669 L55.2512371,56.5093108 L55.2512371,56.5093108 C63.8577475,47.2972799 73.2438663,25.7798101 63.2411922,14.4536013 Z" id="形状结合"></path>
                        </g>
                        <path d="M14.2192199,90.5058357 L39.1129327,63.8604284 L35.7407817,53.6870659 L9.95081507,81.291836 C7.97070668,83.4112045 7.3064897,86.4412517 8.21869057,89.1933343 L8.21869057,89.1933343 C9.07104562,91.7648204 12.3690164,92.4863114 14.2192199,90.5058357 Z" id="Shape" fill="#8E9AC0" fill-rule="nonzero"></path>
                        <path d="M45.760657,14.5183941 C58.6432769,0.729343434 72.9571797,1.22835529 77.7317655,15.6329374 C82.5063514,30.0375195 75.9335239,52.8927278 63.0510832,66.6817784 C50.1686424,80.4706501 35.8545605,79.9716382 31.0799746,65.5672351 C26.3053887,51.162653 32.878037,28.3074447 45.760657,14.5183941 Z M42.7029654,28.9811465 C37.3985469,38.0421135 32.0731644,54.555683 40.1229653,63.6705247 C44.4943334,64.4004889 49.8453973,62.1455048 54.9206466,56.85842 L55.2506815,56.5083972 L55.5096462,56.2292808 C64.043531,46.8679497 73.1438395,25.666548 63.2411922,14.4536013 C54.4383015,12.9835926 46.6782332,22.1904328 42.7029654,28.9811465 Z" id="形状结合" fill="#B1BBD4" fill-rule="nonzero"></path>
                        <path d="M33.2080849,70.1728926 L29.8402343,60.0142068 C29.8398759,60.0109851 29.8393384,60.0077634 29.8388009,60.0043626 L29.8373674,60.0057945 L29.8373674,60.0057945 L29.8373674,60.0057945 L25.0749658,65.1033044 L28.4471167,75.2766669 L33.2109518,70.1777252 C33.2098767,70.1761143 33.2089808,70.1745034 33.2080849,70.1728926 Z" id="Shape" fill="url(#linearGradient-5)" fill-rule="nonzero"></path>
                        <polygon id="Shape" fill="url(#linearGradient-6)" fill-rule="nonzero" points="29.8373674 60.0057945 22.0222912 55.5094973 17.2761948 60.5896455 25.0749658 65.1034834"></polygon>
                        <path d="M71.3850621,22.4261569 C69.8267414,17.7247421 66.8717194,15.0600045 63.2411922,14.4537803 C64.3558655,15.7159867 65.2736209,17.3479774 65.9374795,19.3504683 C69.4130168,29.8356238 64.6285761,46.4723353 55.2512371,56.5094898 C50.0785153,62.0462304 44.5893631,64.4165367 40.1229653,63.6707037 C44.8448725,69.0171825 53.1125552,67.7053971 60.6988197,59.5851784 C70.0761587,49.5478449 74.8605994,32.9113123 71.3850621,22.4261569 Z" id="Shape" fill="url(#linearGradient-7)"></path>
                    </g>
                    <g id="编组-7" transform="translate(110.962695, 20.121094)">
                        <ellipse id="椭圆形" fill="url(#linearGradient-8)" cx="14.353975" cy="14.1445312" rx="14.136455" ry="14.1445312"></ellipse>
                        <ellipse id="椭圆形" fill="url(#radialGradient-9)" transform="translate(7.437072, 17.973882) rotate(-30.000000) translate(-7.437072, -17.973882) " cx="7.43707226" cy="17.9738817" rx="4.19361562" ry="7.61058919"></ellipse>
                        <ellipse id="椭圆形" fill="url(#radialGradient-10)" transform="translate(7.437072, 17.973882) rotate(-30.000000) translate(-7.437072, -17.973882) " cx="7.43707226" cy="17.9738817" rx="2.50956525" ry="4.55436833"></ellipse>
                    </g>
                    <line x1="118.399767" y1="38.0949754" x2="100.233628" y2="46.7827468" id="路径-4" stroke="#CEDAF7" stroke-width="0.5" stroke-dasharray="1.59375"></line>
                    <line x1="66.9556773" y1="58.7734368" x2="26.4516998" y2="78.1935812" id="路径-5" stroke="#CEDAF7" stroke-width="0.5" stroke-dasharray="1.59375"></line>
                    <g id="编组" transform="translate(2.731216, 42.526627)">
                        <polygon id="矩形" fill="#CCE4FF" opacity="0.400000006" transform="translate(10.565170, 25.705795) rotate(45.000000) translate(-10.565170, -25.705795) " points="6.15683458 21.2974596 18.0358728 18.2350916 14.9735048 30.1141298 3.09446655 33.1764978"></polygon>
                        <polygon id="矩形备份-6" fill="#CCE4FF" transform="translate(10.565170, 16.541732) rotate(45.000000) translate(-10.565170, -16.541732) " points="6.15683458 12.1333971 18.0358728 9.07102905 14.9735048 20.9500673 3.09446655 24.0124353"></polygon>
                        <polygon id="矩形备份-7" stroke="#2970FF" stroke-width="0.59765625" transform="translate(10.565170, 10.565170) rotate(45.000000) translate(-10.565170, -10.565170) " points="6.15683458 6.15683458 18.0358728 3.09446655 14.9735048 14.9735048 3.09446655 18.0358728"></polygon>
                    </g>
                </g>
                <rect id="矩形" x="0" y="0" width="204" height="204"></rect>
            </g>
        </g>
    </g>
</svg>