<?xml version="1.0" encoding="UTF-8"?>
<svg width="204px" height="204px" viewBox="0 0 204 204" version="1.1" xmlns="http://www.w3.org/2000/svg" xmlns:xlink="http://www.w3.org/1999/xlink">
    <title>赶紧新建属于你的流程吧</title>
    <defs>
        <linearGradient x1="92.5766725%" y1="47.0568076%" x2="17.0926348%" y2="54.0253457%" id="linearGradient-1">
            <stop stop-color="#CDD8EA" stop-opacity="0.6" offset="0%"></stop>
            <stop stop-color="#E7EBF5" stop-opacity="0.2" offset="100%"></stop>
        </linearGradient>
        <linearGradient x1="100%" y1="66.9796039%" x2="0%" y2="29.2366979%" id="linearGradient-2">
            <stop stop-color="#BEC5D7" stop-opacity="0.4" offset="0%"></stop>
            <stop stop-color="#EEF2F4" stop-opacity="0" offset="100%"></stop>
        </linearGradient>
        <linearGradient x1="90.6955496%" y1="19.7036596%" x2="40.5557036%" y2="63.6854556%" id="linearGradient-3">
            <stop stop-color="#BEC5D7" stop-opacity="0.4" offset="0%"></stop>
            <stop stop-color="#EEF2F4" stop-opacity="0" offset="100%"></stop>
        </linearGradient>
        <linearGradient x1="25.5957658%" y1="68.3203674%" x2="70.3714428%" y2="23.5823863%" id="linearGradient-4">
            <stop stop-color="#7AAFFF" offset="0%"></stop>
            <stop stop-color="#CCE4FF" offset="100%"></stop>
        </linearGradient>
        <linearGradient x1="50%" y1="161.806776%" x2="50%" y2="19.8463467%" id="linearGradient-5">
            <stop stop-color="#B1BBD4" offset="0%"></stop>
            <stop stop-color="#CBCEDF" offset="100%"></stop>
        </linearGradient>
        <path d="M70.4545217,2.48441026 L66.884536,0.408783409 L66.8744374,0.414775527 C66.1419618,-0.0652359212 65.167548,-0.172238027 64.2999222,0.326605791 L4.71779572,34.5835441 C1.79842192,36.2619791 0,39.3643982 0,42.7219103 L0,95.5841608 C0,96.5561679 0.548550916,97.3325752 1.30122379,97.7344751 L1.30100893,97.7430353 L5.15096401,99.9534848 C5.15762483,99.9573368 5.16407079,99.9609749 5.17051674,99.964827 L5.21413438,99.9898655 L5.2164979,99.9843014 C5.92512341,100.369295 6.81853301,100.420228 7.61761678,99.9609749 L67.1988838,65.7162349 C70.1189022,64.0380138 71.9179688,60.9351668 71.9179688,57.5772267 L71.9179688,4.70299193 C71.9179688,3.66421549 71.2875542,2.8569916 70.4545217,2.48441026 Z" id="path-6"></path>
        <linearGradient x1="50%" y1="161.806776%" x2="50%" y2="19.8463467%" id="linearGradient-8">
            <stop stop-color="#B1BBD4" offset="0%"></stop>
            <stop stop-color="#CBCEDF" offset="100%"></stop>
        </linearGradient>
        <polygon id="path-9" points="0 0 58.9659175 0 58.9659175 78.8974412 0 78.8974412"></polygon>
        <polygon id="path-11" points="0 0 58.9659175 0 58.9659175 78.8974412 0 78.8974412"></polygon>
    </defs>
    <g id="数据展示" stroke="none" stroke-width="1" fill="none" fill-rule="evenodd">
        <g id="缺省图" transform="translate(-703.000000, -782.000000)">
            <g id="请单击左侧控件或拖动控件到设计区拖入" transform="translate(703.000000, 782.000000)">
                <g id="编组-11" transform="translate(25.101562, 25.300781)">
                    <path d="M71.8183594,101.800781 C112.80285,101.800781 134.074219,112.905344 134.074219,126.603516 C134.074219,140.301688 112.80285,151.40625 71.8183594,151.40625 C56.4009883,151.40625 43.4912744,149.834863 33.3842625,147.145145 C30.3321412,149.330989 24.5101045,150.808594 17.8300781,150.808594 C7.98279789,150.808594 0,147.597636 0,143.636719 C0,140.439325 5.20182592,137.730627 12.3871306,136.805155 C9.21020092,133.694493 7.5703125,130.240419 7.5703125,126.603516 C7.5703125,112.905344 30.833869,101.800781 71.8183594,101.800781 Z" id="形状结合" fill="url(#linearGradient-1)" fill-rule="nonzero"></path>
                    <line x1="110.922432" y1="84.5785857" x2="147.356998" y2="105.810657" id="路径-3" stroke="url(#linearGradient-2)" stroke-width="0.796875"></line>
                    <circle id="椭圆形" stroke="url(#linearGradient-3)" stroke-width="0.796875" cx="125.308594" cy="34.265625" r="34.265625"></circle>
                    <path d="M98.950347,39.448784 L95.165052,40.2472868 L104.424945,48.9456015 L105.856165,37.1935541 L102.560217,38.1541726 C98.8806722,32.9985553 94.8778543,29.3347215 90.5517637,27.162671 C86.2256732,24.9906205 81.4397532,24.1938795 76.194004,24.772448 C83.3264298,26.3631869 87.7741904,27.8015425 89.5372857,29.0875148 C92.1819288,31.0164732 92.9752521,31.7210727 95.165052,33.9903541 C96.6249187,35.5032084 97.8866837,37.3226851 98.950347,39.448784 Z" id="路径-12" fill="url(#linearGradient-4)" fill-rule="nonzero" transform="translate(91.025085, 36.767752) rotate(-10.000000) translate(-91.025085, -36.767752) "></path>
                </g>
                <rect id="矩形" x="0" y="0" width="204" height="204"></rect>
                <g id="编组-3备份" transform="translate(68.363281, 47.257813)">
                    <g id="编组-2">
                        <g id="online-shopping-1" transform="translate(35.958984, 54.785156) scale(-1, 1) translate(-35.958984, -54.785156) ">
                            <path d="M70.4545217,2.48441026 L66.884536,0.408783409 L66.8744374,0.414775527 C66.1419618,-0.0652359212 65.167548,-0.172238027 64.2999222,0.326605791 L4.71779572,34.5835441 C1.79842192,36.2619791 0,39.3643982 0,42.7219103 L0,95.5841608 C0,96.5561679 0.548550916,97.3325752 1.30122379,97.7344751 L1.30100893,97.7430353 L5.15096401,99.9534848 C5.15762483,99.9573368 5.16407079,99.9609749 5.17051674,99.964827 L5.21413438,99.9898655 L5.2164979,99.9843014 C5.92512341,100.369295 6.81853301,100.420228 7.61761678,99.9609749 L67.1988838,65.7162349 C70.1189022,64.0380138 71.9179688,60.9351668 71.9179688,57.5772267 L71.9179688,4.70299193 C71.9179688,3.66421549 71.2875542,2.8569916 70.4545217,2.48441026 Z" id="Shape" fill="#ECEFF8"></path>
                            <g id="路径-2">
                                <mask id="mask-7" fill="white">
                                    <use xlink:href="#path-6"></use>
                                </mask>
                                <use id="蒙版" fill="url(#linearGradient-5)" fill-rule="nonzero" xlink:href="#path-6"></use>
                                <path d="M-10.9089948,32.8881342 C-9.66423471,33.6008938 17.4902952,46.9920183 70.5545949,73.0615079 L70.5545949,-11.4249079 C15.000775,17.4043607 -12.1537549,32.1753747 -10.9089948,32.8881342 Z" fill="#DFE3EB" mask="url(#mask-7)"></path>
                            </g>
                            <path d="M59.2890504,91.531349 L49.6873681,86.0100403 L49.6873681,56.8716548 L24.5769289,70.8979189 L21.6887105,69.9098614 L21.6887105,100.491063 C21.6887105,101.481903 22.2282371,102.394845 23.0980115,102.875926 L24.0939119,103.426559 L32.9510861,108.519859 C35.3958226,109.925653 38.4093074,109.920089 40.8488871,108.505307 L59.2957112,97.8065945 C60.0754571,97.3544036 60.3975401,96.5253513 60.2948345,95.7444499 L60.328998,95.7249755 L60.328998,93.3223502 L60.328998,93.3223502 C60.3279237,92.6253385 59.9809164,91.9293968 59.2890504,91.531349 Z" id="Shape" fill="#B1BBD4" fill-rule="nonzero"></path>
                            <path d="M49.6873681,56.8716548 L49.6873681,86.0100403 L59.2890504,91.531349 C60.6727824,92.3270166 60.6764351,94.3149018 59.2957112,95.1157055 L40.8488871,105.814418 C38.4093074,107.229414 35.3960375,107.234978 32.9510861,105.82897 L24.0939119,100.73567 L24.0939119,71.1679922 L49.6873681,56.8716548 Z" id="Shape" fill="url(#linearGradient-8)" fill-rule="nonzero"></path>
                            <path d="M40.8488871,105.814632 L59.2957112,95.1159195 C60.6764351,94.3151158 60.6727824,92.3272307 59.2890504,91.531563 L49.6873681,86.0102543 L24.0939119,100.736098 L32.9510861,105.829398 C35.3960375,107.234978 38.4095223,107.229414 40.8488871,105.814632 Z" id="Shape" fill="#ECEFF8"></path>
                            <path d="M3.93117413,97.8404072 L3.93117413,44.9781567 C3.93117413,41.6208586 5.72959605,38.5184395 8.64896985,36.8397905 L68.2310964,2.5828522 C69.8696586,1.64080566 71.9177539,2.81847084 71.9177539,4.70299193 L71.9177539,57.5767987 C71.9177539,60.9347387 70.1186874,64.0373718 67.198669,65.7158069 L7.61740191,99.9605469 C5.97883971,100.902379 3.93117413,99.7245003 3.93117413,97.8404072 Z" id="Shape" fill="#B1BBD4" fill-rule="nonzero"></path>
                            <path d="M44.4087742,74.7613369 C44.4087742,76.190243 43.5364214,77.8502737 42.4605912,78.4689599 C41.3845461,79.0876461 40.5124082,78.4308671 40.5124082,77.001961 C40.5124082,75.5730549 41.384761,73.9130242 42.4605912,73.294338 C43.5364214,72.6756518 44.4087742,73.3324308 44.4087742,74.7613369 Z" id="Shape" fill="#8E9AC0" fill-rule="nonzero"></path>
                        </g>
                        <g id="编组" transform="translate(5.283074, 10.053886)">
                            <path d="M2.94414692,2.54324031 C3.46412032,2.84284002 3.88310466,3.56889697 3.88130708,4.1653973 C3.87979847,4.76129782 3.45810907,5.00121751 2.93783511,4.7016178 C2.41786171,4.40201809 1.99737456,3.67686083 1.99887335,3.08066041 C2.00038018,2.48445998 2.42417353,2.24364059 2.94414692,2.54324031" id="Fill-1" fill="#E45A5E"></path>
                            <path d="M5.76691116,4.16941595 C6.28688456,4.46901566 6.7058689,5.19507262 6.70407133,5.79157295 C6.70256271,6.38747347 6.28087331,6.62739316 5.76059935,6.32779345 C5.24092652,6.02819374 4.82194217,5.30423608 4.82344096,4.70803565 C4.82524836,4.11183523 5.24723833,3.86981624 5.76691116,4.16941595" id="Fill-3" fill="#E4C95E"></path>
                            <path d="M8.58994591,5.7955916 C9.10961874,6.09519131 9.53070702,6.82244787 9.52890942,7.41864829 C9.52710027,8.01484872 9.10360749,8.25356881 8.5836341,7.9539691 C8.0636607,7.65436939 7.64467636,6.93041173 7.64647393,6.3342113 C7.64798255,5.73801088 8.06997252,5.49599189 8.58994591,5.7955916" id="Fill-5" fill="#79C998"></path>
                            <path d="M13.2953445,8.50623423 C13.8150173,8.80583394 14.2361056,9.53309049 14.234308,10.1292909 C14.2324988,10.7254913 13.809006,10.9642114 13.2890326,10.6646117 L12.3488727,10.122993 C11.8285987,9.82339332 11.4081115,9.09823606 11.4096103,8.50203563 C11.4111172,7.90583521 11.8349105,7.66501582 12.3548839,7.96461553 L13.2953445,8.50623423 Z" id="Fill-7" fill="#CCD1DC"></path>
                            <path d="M17.0603125,10.6752582 C17.5802859,10.9748579 17.9992703,11.7009148 17.9974727,12.2971153 C17.9956635,12.8933157 17.5742747,13.1332354 17.0540007,12.8336357 L16.1138407,12.292017 C15.5938673,11.9924173 15.1730796,11.26726 15.1748772,10.6710596 C15.1760852,10.0748591 15.6001791,9.83403975 16.119852,10.1336395 L17.0603125,10.6752582 Z" id="Fill-9" fill="#CCD1DC"></path>
                            <path d="M52.3811134,31.022727 C52.9010868,31.3223267 53.3221751,32.0495832 53.3203775,32.6460836 C53.3185683,33.2419841 52.8950755,33.4807042 52.3748016,33.1811045 L51.4349421,32.6394858 C50.9146682,32.3398861 50.4938805,31.6147288 50.4956781,31.0185284 C50.4971867,30.4223279 50.92098,30.1815086 51.4409534,30.4811083 L52.3811134,31.022727 Z" id="Fill-11" fill="#CCD1DC"></path>
                            <g>
                                <mask id="mask-10" fill="white">
                                    <use xlink:href="#path-9"></use>
                                </mask>
                                <g id="Clip-14"></g>
                                <path d="M5.76691116,4.16941595 C5.24723833,3.86981624 4.82524836,4.11183523 4.82344096,4.70803565 C4.82194217,5.30423608 5.24092652,6.02819374 5.76059935,6.32779345 C6.28087331,6.62739316 6.70256271,6.38747347 6.70407133,5.79157295 C6.7058689,5.19507262 6.28688456,4.46901566 5.76691116,4.16941595 L5.76691116,4.16941595 Z M8.59009619,5.79547164 C8.06982223,5.49587193 7.64813283,5.73789092 7.64662422,6.33409134 C7.64482664,6.93059167 8.06381098,7.65454933 8.58378438,7.95414904 C9.10375777,8.25374875 9.52725055,8.01502866 9.52905794,7.41852833 C9.53055674,6.82232791 9.10976902,6.09507135 8.59009619,5.79547164 L8.59009619,5.79547164 Z M2.9440267,2.54336027 C2.4240533,2.24376055 2.00056052,2.48457994 1.99905193,3.08078037 C1.99725433,3.67698079 2.41774149,4.40213805 2.93801545,4.70173776 C3.45798884,5.00133747 3.87997881,4.76141778 3.88148566,4.16521736 C3.88298444,3.56901693 3.46430066,2.84295998 2.9440267,2.54336027 L2.9440267,2.54336027 Z M56.1403106,35.3502783 C56.6599835,35.6498781 57.0816729,35.4099584 57.083482,34.8137579 C57.0852796,34.2175575 56.6662953,33.4912007 56.1463219,33.191601 L55.2037574,32.6487827 C54.6858879,32.3503825 54.2623952,32.5912019 54.2605878,33.1874024 C54.259089,33.7839027 54.6795761,34.5090599 55.1980467,34.8074601 L56.1403106,35.3502783 L56.1403106,35.3502783 Z M16.1197919,10.1335195 C15.600119,9.83391979 15.1763257,10.0747392 15.1748171,10.6709396 C15.1730195,11.26714 15.5938072,11.9922973 16.1137806,12.291897 L17.0542411,12.8338156 C17.5742145,13.1331154 17.995904,12.8934956 17.9974126,12.2972952 C17.9992101,11.7007949 17.5805264,10.9747379 17.0602524,10.6751382 L16.1197919,10.1335195 L16.1197919,10.1335195 Z M12.354944,7.96464552 C11.8346701,7.66504581 11.4111773,7.9055653 11.4093713,8.50206562 C11.4081717,9.09826605 11.8286588,9.82342331 12.3486322,10.123023 L13.2890928,10.6646417 C13.8090662,10.9642414 14.2325589,10.7255213 14.2343681,10.1293209 C14.2361657,9.53312048 13.8150774,8.80586393 13.2954046,8.50626422 L12.354944,7.96464552 L12.354944,7.96464552 Z M51.4410135,30.4811083 C50.9207395,30.1815086 50.4972468,30.4223279 50.4954394,31.0185284 C50.4939406,31.6147288 50.9147283,32.3398861 51.4347017,32.6394858 L52.3748617,33.1811045 C52.8951356,33.4807042 53.3186284,33.2419841 53.3204376,32.6460836 C53.3222352,32.0495832 52.9011469,31.3223267 52.3811735,31.022727 L51.4410135,30.4811083 L51.4410135,30.4811083 Z M20.8254008,12.8443121 C20.3051268,12.5444125 19.8816341,12.7852319 19.8801255,13.3817322 C19.8783279,13.9779326 20.2991156,14.7030899 20.819089,15.0026896 L47.6695533,30.4706118 C48.1898273,30.7702115 48.6115167,30.5302918 48.6133241,29.9340914 C48.6148228,29.337891 48.1958385,28.6115341 47.6758651,28.3119344 L20.8254008,12.8443121 L20.8254008,12.8443121 Z M56.9671585,75.8166325 L57.071159,39.1305129 C57.0729566,38.5343125 56.6539722,37.8082556 56.1339988,37.5083559 L2.93170363,6.86011526 C2.4120308,6.56051555 1.98853801,6.80133493 1.98673464,7.39753536 L1.88243362,44.0836549 C1.88063602,44.6801552 2.30142374,45.4050126 2.82139713,45.7046123 L56.0236923,76.3531529 C56.5433652,76.6527526 56.9653551,76.4128329 56.9671585,75.8166325 L56.9671585,75.8166325 Z M56.1523331,31.0353228 C57.7104499,31.9332222 58.9713103,34.1092938 58.9659175,35.8981949 L58.8492818,76.9013694 C58.8444728,78.6878713 57.5757979,79.4091299 56.0173805,78.5115304 L2.81568644,47.8629898 C1.25516513,46.9641907 -0.00509408286,44.7857199 1.42108513e-14,42.9992179 L0.11633323,1.99634338 C0.121442795,0.2077421 1.39011777,-0.511717066 2.95033851,0.387082067 L56.1523331,31.0353228 Z" id="Fill-13" fill="#FFFFFF" mask="url(#mask-10)"></path>
                            </g>
                            <path d="M47.6757148,28.3120543 C48.1956882,28.6116541 48.6146726,29.337711 48.6131738,29.9342113 C48.6113664,30.5304118 48.189677,30.7700316 47.669403,30.4704318 L20.8192393,15.0025096 C20.2989653,14.7029099 19.8784781,13.9780526 19.8799769,13.3815522 C19.8814838,12.7853518 20.3052771,12.5445324 20.8252505,12.8441321 L47.6757148,28.3120543 Z" id="Fill-15" fill="#CCD1DC"></path>
                            <path d="M56.146382,33.1917209 C56.6660548,33.4913206 57.0853397,34.2173776 57.0835422,34.8138779 C57.081733,35.4097784 56.6600436,35.6496981 56.1400702,35.3500984 L55.1981068,34.8072801 C54.6796362,34.50888 54.2591491,33.7837227 54.2606479,33.1875223 C54.2621547,32.5913219 54.6859481,32.3505025 55.2038175,32.6489026 L56.146382,33.1917209 Z" id="Fill-17" fill="#CCD1DC"></path>
                        </g>
                    </g>
                    <g id="编组" transform="translate(5.283074, 10.053886)">
                        <mask id="mask-12" fill="white">
                            <use xlink:href="#path-11"></use>
                        </mask>
                        <g id="Clip-14"></g>
                        <path d="M4.82343695,4.70803565 C4.82194217,5.30423608 5.24092652,6.02819374 5.76059935,6.32779345 C6.28087331,6.62739316 6.70256271,6.38747347 6.70407709,5.79157295 C6.7058689,5.19507262 6.28688456,4.46901566 5.76691116,4.16941595 C5.24723833,3.86981624 4.82524836,4.11183523 4.82343695,4.70803565 Z M7.64661845,6.33409134 C7.64482664,6.93059167 8.06381098,7.65454933 8.58378438,7.95414904 C9.10375777,8.25374875 9.52725055,8.01502866 9.52906193,7.41852833 C9.53055674,6.82232791 9.10976902,6.09507135 8.59009619,5.79547164 C8.06982223,5.49587193 7.64813283,5.73789092 7.64661845,6.33409134 Z M1.99904619,3.08078037 C1.99725433,3.67698079 2.41774149,4.40213805 2.93801545,4.70173776 C3.45798884,5.00133747 3.87997881,4.76141778 3.88148967,4.16521736 C3.88298444,3.56901693 3.46430066,2.84295998 2.9440267,2.54336027 C2.4240533,2.24376055 2.00056052,2.48457994 1.99904619,3.08078037 Z M57.0834878,34.8137579 C57.0852796,34.2175575 56.6662953,33.4912007 56.1463219,33.191601 L55.2037574,32.6487827 C54.6858879,32.3503825 54.2623952,32.5912019 54.2605838,33.1874024 C54.259089,33.7839027 54.6795761,34.5090599 55.1980467,34.8074601 L56.1403106,35.3502783 C56.6599835,35.6498781 57.0816729,35.4099584 57.0834878,34.8137579 Z M15.1748113,10.6709396 C15.1730195,11.26714 15.5938072,11.9922973 16.1137806,12.291897 L17.0542411,12.8338156 C17.5742145,13.1331154 17.995904,12.8934956 17.9974183,12.2972952 C17.9992101,11.7007949 17.5805264,10.9747379 17.0602524,10.6751382 L16.1197919,10.1335195 C15.600119,9.83391979 15.1763257,10.0747392 15.1748113,10.6709396 Z M11.4093688,8.50206562 C11.4081717,9.09826605 11.8286588,9.82342331 12.3486322,10.123023 L13.2890928,10.6646417 C13.8090662,10.9642414 14.2325589,10.7255213 14.2343738,10.1293209 C14.2361657,9.53312048 13.8150774,8.80586393 13.2954046,8.50626422 L12.354944,7.96464552 C11.8346701,7.66504581 11.4111773,7.9055653 11.4093688,8.50206562 Z M50.4954354,31.0185284 C50.4939406,31.6147288 50.9147283,32.3398861 51.4347017,32.6394858 L52.3748617,33.1811045 C52.8951356,33.4807042 53.3186284,33.2419841 53.3204433,32.6460836 C53.3222352,32.0495832 52.9011469,31.3223267 52.3811735,31.022727 L51.4410135,30.4811083 C50.9207395,30.1815086 50.4972468,30.4223279 50.4954354,31.0185284 Z M19.8801197,13.3817322 C19.8783279,13.9779326 20.2991156,14.7030899 20.819089,15.0026896 L47.6695533,30.4706118 C48.1898273,30.7702115 48.6115167,30.5302918 48.6133281,29.9340914 C48.6148228,29.337891 48.1958385,28.6115341 47.6758651,28.3119344 L20.8254008,12.8443121 C20.3051268,12.5444125 19.8816341,12.7852319 19.8801197,13.3817322 Z M56.1523331,31.0353228 C57.7104499,31.9332222 58.9713103,34.1092938 58.9663618,35.8981949 L58.8492818,76.9013694 C58.8444728,78.6878713 57.5757979,79.4091299 56.0173805,78.5115304 L1.99905771,46.8177692 C0.958710168,46.2185698 0.331135342,31.2780945 0.11633323,1.99634338 C0.121442795,0.2077421 1.39011777,-0.511717066 2.95033851,0.387082067 L56.1523331,31.0353228 Z" id="Fill-13" fill="#FFFFFF" mask="url(#mask-12)"></path>
                        <g id="编组-5" mask="url(#mask-12)" fill-rule="nonzero">
                            <g transform="translate(2.353645, 8.688302)" id="Shape">
                                <path d="M1.124839,22.1742639 L5.19463384,24.5256936 L5.18189982,29.0404453 L1.11210497,26.6890157 L1.124839,22.1742639 Z M5.64202264,24.7843203 L9.71181748,27.1357499 L9.69908345,31.6505017 L5.62928861,29.299072 L5.64202264,24.7843203 Z M1.13910111,17.1461671 L5.20889595,19.4975967 L5.19616193,24.0123485 L1.12636708,21.6609188 L1.13910111,17.1461671 Z M5.65611496,19.7562234 L9.7259098,22.1076531 L9.71317578,26.6224049 L5.64338093,24.2709752 L5.65611496,19.7562234 Z M1.15336322,12.1179003 L5.22315806,14.46933 L5.21042404,18.9828923 L1.14062919,16.6314626 L1.15336322,12.1179003 Z M5.67054686,14.7279566 L9.7403417,17.0793863 L9.72760767,21.5929486 L5.65781283,19.2415189 L5.67054686,14.7279566 Z M1.16762533,7.08861398 L5.23742017,9.44004365 L5.22468615,13.9547954 L1.1548913,11.6033658 L1.16762533,7.08861398 Z M5.68480897,9.69884026 L9.75460381,12.0504399 L9.74186978,16.5651916 L5.67207494,14.213592 L5.68480897,9.69884026 Z M1.18171765,2.06051714 L5.25151249,4.41194682 L5.23877847,8.92669859 L1.16898363,6.57526891 L1.18171765,2.06051714 Z M5.69890129,4.67074342 L9.76869613,7.02217309 L9.7559621,11.5369249 L5.68616726,9.18549519 L5.69890129,4.67074342 Z M0.108663692,0 L0,35.4013942 L10.7412362,41.6079247 L10.8500697,6.20653048 L0.108663692,0 Z" fill="#B1BBD4"></path>
                                <polyline fill="#FFFFFF" points="5.25151249 4.41211674 1.18188744 2.06051714 1.16898363 6.57526891 5.23877847 8.92703844 5.25151249 4.41211674"></polyline>
                                <polyline fill="#FFFFFF" points="9.76869613 7.02217309 5.69890129 4.67074342 5.68616726 9.18549519 9.7559621 11.5370948 9.76869613 7.02217309"></polyline>
                                <polyline fill="#FFFFFF" points="5.23742017 9.44004365 1.16762533 7.08861398 1.1548913 11.6033658 5.22451636 13.9551353 5.23742017 9.44004365"></polyline>
                                <polyline fill="#FFFFFF" points="9.75443402 12.0502699 5.68480897 9.69867033 5.67207494 14.213592 9.7417 16.5651916 9.75443402 12.0502699"></polyline>
                                <polyline fill="#FFFFFF" points="5.22315806 14.4694999 1.15336322 12.1179003 1.14062919 16.6314626 5.21042404 18.9830622 5.22315806 14.4694999"></polyline>
                                <polyline fill="#FFFFFF" points="9.7403417 17.0797262 5.67054686 14.7281266 5.65781283 19.2415189 9.72760767 21.5932885 9.7403417 17.0797262"></polyline>
                                <polyline fill="#FFFFFF" points="5.20889595 19.4975967 1.13910111 17.1459971 1.12636708 21.6609188 5.19599214 24.0123485 5.20889595 19.4975967"></polyline>
                                <polyline fill="#FFFFFF" points="9.7259098 22.107823 5.65628475 19.7560535 5.64338093 24.2709752 9.71317578 26.6225748 9.7259098 22.107823"></polyline>
                                <polyline fill="#FFFFFF" points="5.19463384 24.5256936 1.124839 22.174094 1.11210497 26.6890157 5.18189982 29.0404453 5.19463384 24.5256936"></polyline>
                                <polyline fill="#FFFFFF" points="9.71181748 27.1359198 5.64202264 24.7841503 5.62928861 29.299072 9.69891367 31.6506716 9.71181748 27.1359198"></polyline>
                            </g>
                        </g>
                        <g id="编组-4备份" mask="url(#mask-12)">
                            <g transform="translate(23.353645, 28.688302)">
                                <g id="编组备份-5" stroke="none" stroke-width="1" fill-rule="evenodd" transform="translate(8.864583, 0.000000)">
                                    <polygon id="矩形备份-3" fill="#D0D6E5" points="0.74537037 0 8.625 4.56503497 8.625 8.43188811 0.74537037 3.86685315"></polygon>
                                    <polygon id="矩形" stroke="#2970FF" stroke-width="0.575" points="0 0.42965035 7.87962963 4.99468531 7.87962963 8.86153846 0 4.2965035"></polygon>
                                </g>
                                <g id="编组备份-6" stroke="none" stroke-width="1" fill-rule="evenodd" transform="translate(5.750000, 23.138462)">
                                    <polygon id="矩形备份-3" fill="#D0D6E5" points="0.74537037 0 8.625 4.56503497 8.625 8.43188811 0.74537037 3.86685315"></polygon>
                                    <polygon id="矩形" stroke="#2970FF" stroke-width="0.575" points="0 0.42965035 7.87962963 4.99468531 7.87962963 8.86153846 0 4.2965035"></polygon>
                                </g>
                                <g id="编组备份-6" stroke="none" stroke-width="1" fill-rule="evenodd" transform="translate(0.000000, 9.107692)">
                                    <polygon id="矩形备份-3" fill="#D0D6E5" points="0.74537037 0 8.625 4.56503497 8.625 8.43188811 0.74537037 3.86685315"></polygon>
                                    <polygon id="矩形" stroke="#2970FF" stroke-width="0.575" points="0 0.42965035 7.87962963 4.99468531 7.87962963 8.86153846 0 4.2965035"></polygon>
                                </g>
                                <g id="编组备份-6" stroke="none" stroke-width="1" fill-rule="evenodd" transform="translate(14.375000, 16.492308)">
                                    <polygon id="矩形备份-3" fill="#D0D6E5" points="0.74537037 0 8.625 4.56503497 8.625 8.43188811 0.74537037 3.86685315"></polygon>
                                    <polygon id="矩形" stroke="#2970FF" stroke-width="0.575" points="0 0.42965035 7.87962963 4.99468531 7.87962963 8.86153846 0 4.2965035"></polygon>
                                </g>
                                <polyline id="路径-13" stroke="#8E9AC0" stroke-width="0.575" points="12.2833547 6.31128576 12.2622833 11.2205491 4.10057516 6.32935798 4.10057516 11.8919124"></polyline>
                                <polyline id="路径-14" stroke="#8E9AC0" stroke-width="0.575" points="12.2433125 6.31128576 12.2433125 11.2033849 18.2921075 14.7783983 18.2921075 19.1112858"></polyline>
                                <polyline id="路径-16" stroke="#8E9AC0" stroke-width="0.575" points="3.63824507 15.6248319 3.45497548 19.2294072 9.84953704 22.9440368 9.84953704 25.8340496"></polyline>
                                <polyline id="路径-17" stroke="#8E9AC0" stroke-width="0.575" points="9.84953704 25.8340496 9.84953704 22.9440368 17.7637904 27.6069973 17.8788353 22.9017181"></polyline>
                            </g>
                        </g>
                    </g>
                </g>
            </g>
        </g>
    </g>
</svg>