<?xml version="1.0" encoding="UTF-8"?>
<svg width="74px" height="74px" viewBox="0 0 74 74" version="1.1" xmlns="http://www.w3.org/2000/svg" xmlns:xlink="http://www.w3.org/1999/xlink">
    <title>数据分析</title>
    <g id="一级页面" stroke="none" stroke-width="1" fill="none" fill-rule="evenodd">
        <g id="选择业务设计类型" transform="translate(-673.000000, -207.000000)" fill-rule="nonzero">
            <g id="数据分析" transform="translate(673.000000, 207.000000)">
                <rect id="矩形备份-10" fill-opacity="0.196932706" fill="#00C293" x="0" y="0" width="74" height="74" rx="12"></rect>
                <g id="编组备份-2" transform="translate(20.000000, 20.000000)">
                    <path d="M2.06181296,19.1253972 L4.19450959,16.9927005 L7.03911065,19.836296 L5.61630736,21.2590993 C4.04616828,22.8297126 4.04616828,25.375677 5.61630736,26.9462904 L7.03911065,28.3690936 C8.60972399,29.9392327 11.1556884,29.9392327 12.7263017,28.3690936 L19.836296,21.2590993 C20.5906232,20.504811 21.014403,19.4817532 21.014403,18.415001 C21.014403,17.3482488 20.5906232,16.325191 19.836296,15.5709027 L18.4144983,14.149105 C18.1711931,13.9115498 17.898496,13.7060978 17.6030479,13.537752 L20.5482004,10.593605 L23.391796,13.4372006 C24.7119454,14.7572153 25.4536089,16.5476203 25.4536089,18.4144983 C25.4536089,20.2813762 24.7119454,22.0717812 23.391796,23.391796 L14.8600038,31.923588 C13.5399891,33.2437375 11.7495841,33.985401 9.88270616,33.985401 C8.01582819,33.985401 6.22542319,33.2437375 4.90540848,31.923588 L2.06181296,29.0799925 C0.741663545,27.7599778 0,25.9695728 0,24.1026948 C0,22.2358169 0.741663545,20.4454119 2.06181296,19.1253972 L2.06181296,19.1253972 Z" id="路径" fill="#00C293"></path>
                    <path d="M31.923588,14.8600038 L29.7908914,16.9927005 L26.9462904,14.149105 L28.3690936,12.7263017 C29.9392327,11.1556884 29.9392327,8.60972399 28.3690936,7.03911065 L26.9462904,5.61630736 C25.375677,4.04616828 22.8297126,4.04616828 21.2590993,5.61630736 L14.149105,12.7263017 C13.3947778,13.48059 12.970998,14.5036478 12.970998,15.5704 C12.970998,16.6371522 13.3947778,17.66021 14.149105,18.4144983 L15.5709027,19.836296 C15.8142079,20.0738512 16.086905,20.2793032 16.3823531,20.447649 L13.4372006,23.391796 L10.593605,20.5482004 C9.27345563,19.2281857 8.53179208,17.4377807 8.53179208,15.5709027 C8.53179208,13.7040248 9.27345563,11.9136198 10.593605,10.593605 L19.1253972,2.06181296 C20.4454119,0.741663545 22.2358169,0 24.1026948,0 C25.9695728,0 27.7599778,0.741663545 29.0799925,2.06181296 L31.923588,4.90540848 C33.2437375,6.22542319 33.985401,8.01582819 33.985401,9.88270616 C33.985401,11.7495841 33.2437375,13.5399891 31.923588,14.8600038 L31.923588,14.8600038 Z" id="路径" fill="#83E2CB"></path>
                </g>
            </g>
        </g>
    </g>
</svg>