<?xml version="1.0" encoding="UTF-8"?>
<svg width="74px" height="74px" viewBox="0 0 74 74" version="1.1" xmlns="http://www.w3.org/2000/svg" xmlns:xlink="http://www.w3.org/1999/xlink">
    <title>业务模型</title>
    <g id="一级页面" stroke="none" stroke-width="1" fill="none" fill-rule="evenodd">
        <g id="选择业务设计类型" transform="translate(-177.000000, -207.000000)" fill-rule="nonzero">
            <g id="业务模型" transform="translate(177.000000, 207.000000)">
                <rect id="矩形备份-6" fill="#E5EFFF" x="0" y="0" width="74" height="74" rx="12"></rect>
                <g id="编组备份" transform="translate(21.000000, 19.000000)">
                    <path d="M3.27278044,27.1062047 L15.5457071,32.5717481 L27.8186338,27.1062047 L27.8186338,8.89318149 L15.5457071,3.42763813 L3.27278044,8.89318149 L3.27278044,27.1062047 Z M15.5457071,36 C15.3168037,36.0004426 15.0903916,35.9524834 14.8813327,35.859256 L0.972015793,29.6638826 C0.381420669,29.4015033 0.000564337739,28.816113 0,28.1698583 L0,7.82952786 C0.000564337739,7.18327314 0.381420669,6.59788284 0.972015793,6.33550357 L14.8813327,0.141766584 C15.3046522,-0.0472555279 15.7883985,-0.0472555279 16.211718,0.141766584 L30.1210349,6.33550357 C30.7115322,6.59861381 31.0917839,7.18470154 31.0914145,7.83116422 L31.0914145,28.1698583 C31.0914145,28.8157277 30.7109902,29.4010138 30.1210349,29.6638826 L16.211718,35.859256 C16.0021556,35.9527094 15.7751618,36.0006737 15.5457071,36 Z" id="形状" fill="#1768E4"></path>
                    <polygon id="路径" fill="#8BB3F1" points="17.1820974 15.7807479 25.2216825 12.1250522 23.8700242 9.14682196 15.5457071 12.9301562 7.22139006 9.14682196 5.86809536 12.1250522 13.9093169 15.7807479 13.9093169 20.2202746 5.86973172 23.874334 7.22302646 26.8525642 15.5457071 23.0725028 23.8700242 26.8542006 25.2216825 23.8759704 17.1820974 20.221911"></polygon>
                </g>
            </g>
        </g>
    </g>
</svg>