<?xml version="1.0" encoding="UTF-8"?>
<svg width="74px" height="74px" viewBox="0 0 74 74" version="1.1" xmlns="http://www.w3.org/2000/svg" xmlns:xlink="http://www.w3.org/1999/xlink">
    <title>数据分析</title>
    <g id="一级页面" stroke="none" stroke-width="1" fill="none" fill-rule="evenodd">
        <g id="选择业务设计类型" transform="translate(-429.000000, -207.000000)" fill-rule="nonzero">
            <g id="数据分析" transform="translate(429.000000, 207.000000)">
                <rect id="矩形备份-9" fill="#FFE6B3" x="0" y="0" width="74" height="74" rx="12"></rect>
                <path d="M50.0827068,52 L23.9172932,52 C22.8616541,52 22,51.1383459 22,50.0827068 L22,23.9172932 C22,22.8616541 22.8616541,22 23.9172932,22 L50.0827068,22 C51.1383459,22 52,22.8616541 52,23.9172932 L52,50.0827068 C52,51.1383459 51.1428571,52 50.0827068,52 Z M23.2559055,23 C22.5617323,23 22,23.5617323 22,24.2559055 L22,50.7440945 C22,51.4382677 22.5617323,52 23.2559055,52 L49.7440945,52 C50.4382677,52 51,51.4382677 51,50.7440945 L51,24.2559055 C51,23.5617323 50.4382677,23 49.7440945,23 L23.2559055,23 Z" id="形状" stroke="#FAAD14" stroke-width="3"></path>
                <path d="M30.9311278,37.6084211 L28.5025564,37.6084211 C27.832782,37.6084211 27.2908271,38.1503759 27.2908271,38.8201504 L27.2908271,43.6772932 C27.2908271,44.3470677 27.832782,44.8890226 28.5025564,44.8890226 L30.9311278,44.8890226 C31.6009023,44.8890226 32.1428571,44.3470677 32.1428571,43.6772932 L32.1428571,38.8201504 C32.1428571,38.1503759 31.6009023,37.6084211 30.9311278,37.6084211 Z M38.2168421,29.1058647 L35.7882707,29.1058647 C35.1184962,29.1058647 34.5765414,29.6478195 34.5765414,30.317594 L34.5765414,43.6772932 C34.5765414,44.3470677 35.1184962,44.8890226 35.7882707,44.8890226 L38.2168421,44.8890226 C38.8866165,44.8890226 39.4336842,44.3470677 39.4336842,43.6772932 L39.4336842,30.3227068 C39.4285714,29.6529323 38.8866165,29.1058647 38.2168421,29.1058647 Z M45.5025564,32.7512782 L43.073985,32.7512782 C42.4042105,32.7512782 41.8571429,33.2932331 41.8571429,33.9681203 L41.8571429,43.682406 C41.8571429,44.3521805 42.4042105,44.8941353 43.073985,44.8941353 L45.5025564,44.8941353 C46.1723308,44.8941353 46.7142857,44.3521805 46.7142857,43.682406 L46.7142857,33.9681203 C46.7142857,33.2932331 46.1723308,32.7512782 45.5025564,32.7512782 L45.5025564,32.7512782 Z" id="形状" fill="#FFC95E"></path>
            </g>
        </g>
    </g>
</svg>